<svg width="100%" viewBox="180 130 260 250" xmlns="http://www.w3.org/2000/svg" role="img" style="">
<title style="fill:rgb(0, 0, 0);stroke:none;color:rgb(11, 11, 11);stroke-width:1px;stroke-linecap:butt;stroke-linejoin:miter;opacity:1;font-family:&quot;Anthropic Sans&quot;, -apple-system, BlinkMacSystemFont, &quot;Segoe UI&quot;, sans-serif;font-size:16px;font-weight:400;text-anchor:start;dominant-baseline:auto">Monograma MA com curvas arredondadas</title>
<desc style="fill:rgb(0, 0, 0);stroke:none;color:rgb(11, 11, 11);stroke-width:1px;stroke-linecap:butt;stroke-linejoin:miter;opacity:1;font-family:&quot;Anthropic Sans&quot;, -apple-system, BlinkMacSystemFont, &quot;Segoe UI&quot;, sans-serif;font-size:16px;font-weight:400;text-anchor:start;dominant-baseline:auto">Monograma elegante com as letras M e A conectadas em um traço único, curvas suaves e arredondadas, estilo assinatura polida</desc>
<path d="M 200 320&#10;  C 204 302 213 264 226 224&#10;  C 234 200 243 184 250 194&#10;  C 258 212 266 238 274 260&#10;  C 278 270 282 270 286 260&#10;  C 296 234 308 200 320 170&#10;  C 326 154 335 150 339 166&#10;  C 343 184 345 206 347 224&#10;&#10;  C 338 204 350 242 336 276&#10;  C 322 306 307 330 294 348&#10;  C 290 354 288 358 290 350&#10;&#10;  M 347 224&#10;  C 357 248 371 282 385 312&#10;  C 393 330 399 342 403 350&#10;&#10;  M 306 300&#10;  C 323 296 349 296 369 302&#10;  C 379 305 385 310 391 316&#10;  C 399 324 407 328 415 322&#10;  " fill="none" stroke="#FFFFFF" stroke-width="14" stroke-linecap="round" stroke-linejoin="round" style="fill:none;stroke:rgb(255, 255, 255);color:rgb(255, 255, 255);stroke-width:14px;stroke-linecap:round;stroke-linejoin:round;opacity:1;font-family:&quot;Anthropic Sans&quot;, -apple-system, BlinkMacSystemFont, &quot;Segoe UI&quot;, sans-serif;font-size:16px;font-weight:400;text-anchor:start;dominant-baseline:auto"/>
</svg>